<svg
  xmlns="http://www.w3.org/2000/svg"
  width="32"
  height="32"
  viewBox="0 0 32 32"
  fill="none"
>
<path
    opacity="0.4"
    d="M25.7866 19.32L24.4533 17.1067C24.1733 16.6134 23.92 15.68 23.92 15.1334V11.76C23.92 7.41337 20.3866 3.8667 16.0266 3.8667C11.6666 3.8667 8.1333 7.41337 8.1333 11.76V15.1334C8.1333 15.68 7.87996 16.6134 7.59996 17.0934L6.2533 19.32C5.71996 20.2134 5.59996 21.2 5.9333 22.1067C6.2533 23 7.0133 23.6934 7.99996 24.0267C10.5866 24.9067 13.3066 25.3334 16.0266 25.3334C18.7466 25.3334 21.4666 24.9067 24.0533 24.04C24.9866 23.7334 25.7066 23.0267 26.0533 22.1067C26.4 21.1867 26.3066 20.1734 25.7866 19.32Z"
    fill="#F3A03B"
  />
<path
    d="M19 4.42669C18.08 4.06669 17.08 3.86669 16.0267 3.86669C14.9867 3.86669 13.9867 4.05335 13.0667 4.42669C13.64 3.34669 14.7733 2.66669 16.0267 2.66669C17.2933 2.66669 18.4133 3.34669 19 4.42669Z"
    fill="#F3A03B"
  />
<path
    d="M19.7733 26.68C19.2133 28.2267 17.7333 29.3334 16 29.3334C14.9467 29.3334 13.9067 28.9067 13.1733 28.1467C12.7467 27.7467 12.4267 27.2134 12.24 26.6667C12.4133 26.6934 12.5867 26.7067 12.7733 26.7334C13.08 26.7734 13.4 26.8134 13.72 26.84C14.48 26.9067 15.2533 26.9467 16.0267 26.9467C16.7867 26.9467 17.5467 26.9067 18.2933 26.84C18.5733 26.8134 18.8533 26.8 19.12 26.76C19.3333 26.7334 19.5467 26.7067 19.7733 26.68Z"
    fill="#F3A03B"
  />
</svg>
