<svg xmlns="http://www.w3.org/2000/svg" width="32" height="32" viewBox="0 0 32 32" fill="none">
<path opacity="0.4" d="M29.3198 8.02694C29.3465 8.34694 29.3198 8.68026 29.2398 9.01359L24.7465 27.0535C24.4265 28.4002 23.2265 29.3336 21.8398 29.3336H4.31982C2.30648 29.3336 0.879837 27.3603 1.4665 25.4269L7.07982 7.38688C7.46649 6.13355 8.62651 5.28027 9.93318 5.28027H26.3332C27.6132 5.28027 28.6532 6.04027 29.0932 7.10693C29.2265 7.38693 29.2931 7.70694 29.3198 8.02694Z" fill="#F3A03B"/>
<path d="M30.6527 26.16C30.786 27.88 29.426 29.3333 27.706 29.3333H21.8394C23.226 29.3333 24.426 28.4 24.746 27.0533L29.2393 9.01335C29.3193 8.68001 29.346 8.34669 29.3193 8.02669L29.3327 8L30.6527 26.16Z" fill="#F3A03B"/>
<path d="M12.9065 9.50652C12.8265 9.50652 12.7465 9.49316 12.6665 9.47983C12.1332 9.34649 11.7999 8.81319 11.9332 8.26653L13.3198 2.50652C13.4532 1.97318 13.9865 1.6532 14.5332 1.7732C15.0665 1.90653 15.3999 2.43983 15.2665 2.9865L13.8799 8.74651C13.7732 9.19984 13.3599 9.50652 12.9065 9.50652Z" fill="#F3A03B"/>
<path d="M21.8399 9.51974C21.7733 9.51974 21.6932 9.51971 21.6266 9.49304C21.0932 9.37304 20.7466 8.83969 20.8533 8.30636L22.1066 2.51974C22.2266 1.97307 22.7599 1.63971 23.2932 1.74638C23.8266 1.86638 24.1732 2.39973 24.0666 2.93307L22.8132 8.71969C22.7199 9.19969 22.3066 9.51974 21.8399 9.51974Z" fill="#F3A03B"/>
<path d="M20.9338 17H10.2671C9.72042 17 9.26709 16.5467 9.26709 16C9.26709 15.4533 9.72042 15 10.2671 15H20.9338C21.4804 15 21.9338 15.4533 21.9338 16C21.9338 16.5467 21.4804 17 20.9338 17Z" fill="#F3A03B"/>
<path d="M19.6007 22.333H8.93408C8.38742 22.333 7.93408 21.8797 7.93408 21.333C7.93408 20.7863 8.38742 20.333 8.93408 20.333H19.6007C20.1474 20.333 20.6007 20.7863 20.6007 21.333C20.6007 21.8797 20.1474 22.333 19.6007 22.333Z" fill="#F3A03B"/>
</svg>