<svg xmlns="http://www.w3.org/2000/svg" width="28" height="30" viewBox="0 0 28 30" fill="none">
<path opacity="0.4" d="M23.9641 8.75V21.25C23.9641 25 22.2523 27.5 18.2583 27.5H9.1291C5.13507 27.5 3.42334 25 3.42334 21.25V8.75C3.42334 5 5.13507 2.5 9.1291 2.5H18.2583C22.2523 2.5 23.9641 5 23.9641 8.75Z" fill="#F3A03B"/>
<path d="M21.1114 11.5625H18.8291C17.0945 11.5625 15.6909 10.025 15.6909 8.125V5.625C15.6909 5.1125 16.0789 4.6875 16.5468 4.6875C17.0147 4.6875 17.4026 5.1125 17.4026 5.625V8.125C17.4026 8.9875 18.0417 9.6875 18.8291 9.6875H21.1114C21.5793 9.6875 21.9673 10.1125 21.9673 10.625C21.9673 11.1375 21.5793 11.5625 21.1114 11.5625Z" fill="#F3A03B"/>
<path d="M13.6939 17.1875H9.1293C8.66143 17.1875 8.27344 16.7625 8.27344 16.25C8.27344 15.7375 8.66143 15.3125 9.1293 15.3125H13.6939C14.1618 15.3125 14.5498 15.7375 14.5498 16.25C14.5498 16.7625 14.1618 17.1875 13.6939 17.1875Z" fill="#F3A03B"/>
<path d="M18.2585 22.1875H9.1293C8.66143 22.1875 8.27344 21.7625 8.27344 21.25C8.27344 20.7375 8.66143 20.3125 9.1293 20.3125H18.2585C18.7264 20.3125 19.1144 20.7375 19.1144 21.25C19.1144 21.7625 18.7264 22.1875 18.2585 22.1875Z" fill="#F3A03B"/>
</svg>