<svg width="41" height="41" viewBox="0 0 41 41" fill="none" xmlns="http://www.w3.org/2000/svg">
<g id="vuesax/outline/filter">
<g id="filter">
<path id="Vector" d="M13.0065 22.0165L13.0007 22.0095L12.9945 22.0029L6.60535 15.2379L6.60542 15.2378L6.60037 15.2328C6.08807 14.7205 5.63012 14.0175 5.30056 13.2714C4.97048 12.524 4.77734 11.7518 4.77734 11.1046V7.17539C4.77734 4.57187 6.74061 2.55664 9.22526 2.55664H31.7753C34.2339 2.55664 36.2232 4.54596 36.2232 7.00456V10.7629C36.2232 11.6131 35.9671 12.5335 35.582 13.3704C35.1984 14.2039 34.6954 14.9358 34.2176 15.4154L26.8289 21.9508C26.4317 22.283 26.0924 22.7976 25.8526 23.3549C25.6114 23.9153 25.4607 24.5427 25.4607 25.1129V32.4587C25.4607 33.1698 25.2358 33.9492 24.8629 34.6398C24.4894 35.3314 23.9792 35.9121 23.4296 36.2418L23.4295 36.2417L23.4227 36.2461L21.0686 37.7644C21.068 37.7647 21.0674 37.7651 21.0669 37.7655C20.339 38.2179 19.5143 38.4441 18.6894 38.4441C17.9126 38.4441 17.151 38.2503 16.4354 37.8601C15.0106 37.0663 14.1561 35.629 14.1561 34.0133V24.9591C14.1561 24.4859 14.0023 23.9177 13.7895 23.3956C13.5758 22.8711 13.291 22.3653 13.0065 22.0165ZM19.965 36.02L19.9651 36.02L19.9688 36.0176L22.3409 34.4987C22.6355 34.3188 22.9 33.9702 23.0879 33.61C23.2779 33.2459 23.4153 32.8208 23.4153 32.4587V25.1129C23.4153 23.351 24.2767 21.4082 25.4956 20.3843L25.4957 20.3844L25.5006 20.3801L32.8123 13.9055L32.8179 13.9004L32.8233 13.8951C33.1416 13.5767 33.4771 13.0572 33.7325 12.4957C33.9877 11.9348 34.1778 11.2997 34.1778 10.7458V7.00456C34.1778 5.68774 33.1092 4.61914 31.7923 4.61914H9.22526C7.87405 4.61914 6.83984 5.75695 6.83984 7.17539V11.1046C6.83984 11.472 6.98399 11.9753 7.19905 12.4559C7.41561 12.9398 7.72043 13.4374 8.07243 13.7903L14.5721 20.6312C15.4171 21.6784 16.2357 23.4137 16.2357 24.9421V33.9962C16.2357 35.24 17.0992 35.8536 17.4608 36.0444C18.2499 36.4757 19.2165 36.4806 19.965 36.02Z" fill="#1D44D0" stroke="#1D44D0" stroke-width="0.5"/>
<path id="Vector_2" d="M9.36859 16.5327L9.36902 16.532L17.7907 3.03689C17.7907 3.03677 17.7908 3.03665 17.7909 3.03653C18.095 2.5532 18.7272 2.40484 19.2056 2.7055C19.6892 3.00949 19.8377 3.64194 19.5369 4.12038L19.5365 4.12107L11.1144 17.6169L11.1144 17.6169L11.113 17.6193C10.919 17.938 10.5897 18.1143 10.2503 18.1143C10.0643 18.1143 9.88505 18.0625 9.69304 17.9603C9.2161 17.6552 9.06857 17.01 9.36859 16.5327Z" fill="#1D44D0" stroke="#1D44D0" stroke-width="0.5"/>
</g>
</g>
</svg>
