<svg xmlns="http://www.w3.org/2000/svg" width="80" height="80" viewBox="0 0 80 80" fill="none">
<path opacity="0.4" d="M39.9984 73.3337C58.4079 73.3337 73.3317 58.4098 73.3317 40.0003C73.3317 21.5908 58.4079 6.66699 39.9984 6.66699C21.5889 6.66699 6.66504 21.5908 6.66504 40.0003C6.66504 58.4098 21.5889 73.3337 39.9984 73.3337Z" fill="#F3A03B"/>
<path d="M35.7973 54.2667C35.164 54.2667 34.5307 54.0334 34.0307 53.5334C33.064 52.5667 33.064 50.9667 34.0307 50L44.0307 40L34.0307 30C33.064 29.0334 33.064 27.4334 34.0307 26.4667C34.9973 25.5 36.5973 25.5 37.564 26.4667L49.3307 38.2334C50.2973 39.2 50.2973 40.8 49.3307 41.7667L37.564 53.5334C37.064 54.0334 36.4307 54.2667 35.7973 54.2667Z" fill="#F3A03B"/>
</svg>