<svg
  xmlns="http://www.w3.org/2000/svg"
  width="70"
  height="70"
  viewBox="0 0 70 70"
  fill="none"
>
<path
    d="M52.4999 20.8835C52.3249 20.8543 52.1207 20.8543 51.9457 20.8835C47.9207 20.7377 44.7124 17.4418 44.7124 13.3585C44.7124 9.18767 48.0666 5.8335 52.2374 5.8335C56.4082 5.8335 59.7624 9.21683 59.7624 13.3585C59.7332 17.4418 56.5249 20.7377 52.4999 20.8835Z"
    stroke="#1D44D0"
    stroke-width="4"
    stroke-linecap="round"
    stroke-linejoin="round"
  />
<path
    d="M49.4957 42.1168C53.4915 42.7876 57.8957 42.0876 60.9874 40.0168C65.0999 37.2751 65.0999 32.7835 60.9874 30.0418C57.8666 27.971 53.404 27.271 49.4082 27.971"
    stroke="#1D44D0"
    stroke-width="4"
    stroke-linecap="round"
    stroke-linejoin="round"
  />
<path
    d="M17.4124 20.8835C17.5874 20.8543 17.7916 20.8543 17.9666 20.8835C21.9916 20.7377 25.1999 17.4418 25.1999 13.3585C25.1999 9.18767 21.8457 5.8335 17.6749 5.8335C13.5041 5.8335 10.1499 9.21683 10.1499 13.3585C10.1791 17.4418 13.3874 20.7377 17.4124 20.8835Z"
    stroke="#1D44D0"
    stroke-width="4"
    stroke-linecap="round"
    stroke-linejoin="round"
  />
<path
    d="M20.4165 42.1168C16.4207 42.7876 12.0165 42.0876 8.92483 40.0168C4.81233 37.2751 4.81233 32.7835 8.92483 30.0418C12.0457 27.971 16.5082 27.271 20.504 27.971"
    stroke="#1D44D0"
    stroke-width="4"
    stroke-linecap="round"
    stroke-linejoin="round"
  />
<path
    d="M34.9999 42.6706C34.8249 42.6414 34.6207 42.6414 34.4457 42.6706C30.4207 42.5248 27.2124 39.2289 27.2124 35.1456C27.2124 30.9748 30.5666 27.6206 34.7374 27.6206C38.9082 27.6206 42.2624 31.0039 42.2624 35.1456C42.2332 39.2289 39.0249 42.5539 34.9999 42.6706Z"
    stroke="#1D44D0"
    stroke-width="4"
    stroke-linecap="round"
    stroke-linejoin="round"
  />
<path
    d="M26.5124 51.8578C22.3999 54.5995 22.3999 59.0911 26.5124 61.8328C31.179 64.9536 38.8207 64.9536 43.4874 61.8328C47.5999 59.0911 47.5999 54.5995 43.4874 51.8578C38.8499 48.7661 31.179 48.7661 26.5124 51.8578Z"
    stroke="#1D44D0"
    stroke-width="4"
    stroke-linecap="round"
    stroke-linejoin="round"
  />
</svg>
