<svg
  xmlns="http://www.w3.org/2000/svg"
  width="24"
  height="24"
  viewBox="0 0 24 24"
  fill="none"
>
<path
    opacity="0.4"
    d="M12 22C17.5228 22 22 17.5228 22 12C22 6.47715 17.5228 2 12 2C6.47715 2 2 6.47715 2 12C2 17.5228 6.47715 22 12 22Z"
    fill="white"
  />
<path
    opacity="0.4"
    d="M17.6448 7.10536C16.1898 5.65036 14.7648 5.61286 13.2723 7.10536L12.3648 8.01286C12.2898 8.08786 12.2598 8.20786 12.2898 8.31286C12.8598 10.3004 14.4498 11.8904 16.4373 12.4604C16.4673 12.4679 16.4973 12.4754 16.5273 12.4754C16.6098 12.4754 16.6848 12.4454 16.7448 12.3854L17.6448 11.4779C18.3873 10.7429 18.7473 10.0304 18.7473 9.31036C18.7548 8.56786 18.3948 7.84786 17.6448 7.10536Z"
    fill="white"
  />
<path
    d="M15.0871 13.1429C14.8696 13.0379 14.6596 12.9329 14.4571 12.8129C14.2921 12.7154 14.1346 12.6104 13.9771 12.4979C13.8496 12.4154 13.6996 12.2954 13.5571 12.1754C13.5421 12.1679 13.4896 12.1229 13.4296 12.0629C13.1821 11.8529 12.9046 11.5829 12.6571 11.2829C12.6346 11.2679 12.5971 11.2154 12.5446 11.1479C12.4696 11.0579 12.3421 10.9079 12.2296 10.7354C12.1396 10.6229 12.0346 10.4579 11.9371 10.2929C11.8171 10.0904 11.7121 9.8879 11.6071 9.6779C11.5021 9.4529 11.4196 9.2354 11.3446 9.0329L6.63463 13.7429C6.53713 13.8404 6.44713 14.0279 6.42463 14.1554L6.01963 17.0279C5.94463 17.5379 6.08713 18.0179 6.40213 18.3404C6.67213 18.6029 7.04713 18.7454 7.45213 18.7454C7.54213 18.7454 7.63213 18.7379 7.72213 18.7229L10.6021 18.3179C10.7371 18.2954 10.9246 18.2054 11.0146 18.1079L15.7246 13.3979C15.5146 13.3229 15.3121 13.2404 15.0871 13.1429Z"
    fill="white"
  />
</svg>
