<svg
  xmlns="http://www.w3.org/2000/svg"
  width="43"
  height="41"
  viewBox="0 0 43 41"
  fill="none"
>
<path
    d="M16.7753 1.70312C17.9797 0.628906 19.591 0.0917969 21.6093 0.0917969C23.6275 0.0917969 25.2388 0.628906 26.4433 1.70312C27.6802 2.77734 28.2987 4.24219 28.2987 6.09766C28.2987 8.05078 27.3059 10.2806 25.3202 12.7871C23.302 15.3587 22.2929 17.4258 22.2929 18.9883H20.8769C20.8769 17.3607 19.884 15.2936 17.8983 12.7871C15.9127 10.2806 14.9198 8.05078 14.9198 6.09766C14.9198 4.24219 15.5383 2.77734 16.7753 1.70312ZM41.58 14.4961C42.2636 16.3516 42.3124 18.0605 41.7265 19.623C41.1731 21.153 40.0663 22.2435 38.4061 22.8945C36.5832 23.5456 34.1418 23.3991 31.0819 22.4551C27.9569 21.5111 25.6295 21.3646 24.0995 22.0156L23.7089 20.5996C24.425 20.4043 25.1086 19.9648 25.7597 19.2812C26.4107 18.5977 26.9966 17.8164 27.5175 16.9375C28.0709 16.0586 28.6242 15.1797 29.1776 14.3008C29.731 13.3893 30.3821 12.5755 31.1308 11.8594C31.912 11.1432 32.7421 10.6549 33.621 10.3945C35.2811 9.74349 36.8274 9.80859 38.2597 10.5898C39.7245 11.3385 40.8313 12.6406 41.58 14.4961ZM1.58973 14.4961C2.33843 12.6406 3.4452 11.3385 4.91005 10.5898C6.37489 9.80859 7.93739 9.74349 9.59755 10.3945C10.6392 10.6875 11.6321 11.3548 12.5761 12.3965C13.5201 13.4382 14.2851 14.5124 14.871 15.6191C15.4569 16.6934 16.1568 17.735 16.9706 18.7441C17.7844 19.7533 18.6308 20.3717 19.5097 20.5996L19.119 22.0156C17.5565 21.4297 15.2453 21.5924 12.1854 22.5039C9.06044 23.4479 6.60275 23.5781 4.81239 22.8945C3.15223 22.2435 2.02919 21.153 1.44325 19.623C0.85731 18.0605 0.906138 16.3516 1.58973 14.4961ZM34.6952 38.8125C33.0351 40.0169 31.3586 40.5703 29.6659 40.4727C28.0058 40.3424 26.6223 39.5775 25.5155 38.1777C24.3762 36.6478 23.8065 34.2715 23.8065 31.0488C23.8065 27.8587 23.3345 25.6126 22.3905 24.3105L23.4159 23.4805C24.425 24.75 26.5084 25.7428 29.6659 26.459C32.7584 27.1751 34.9394 28.3145 36.2089 29.877C37.2831 31.4069 37.6737 32.9857 37.3808 34.6133C37.1203 36.2083 36.2252 37.6081 34.6952 38.8125ZM8.52333 38.8125C6.99338 37.6081 6.08192 36.2083 5.78895 34.6133C5.52854 33.0182 5.93544 31.4395 7.00966 29.877C8.27919 28.3145 10.4602 27.1751 13.5526 26.459C16.7102 25.7428 18.7935 24.75 19.8026 23.4805L20.7792 24.3105C19.7701 25.5475 19.3144 27.7936 19.412 31.0488C19.4771 34.3366 18.9075 36.7129 17.703 38.1777C16.5637 39.5775 15.164 40.3424 13.5038 40.4727C11.8437 40.5703 10.1835 40.0169 8.52333 38.8125Z"
    fill="#FF0000"
  />
</svg>
