<svg
  xmlns="http://www.w3.org/2000/svg"
  width="32"
  height="32"
  viewBox="0 0 32 32"
  fill="none"
>
<path
    opacity="0.4"
    d="M15.3337 27.9998C22.3293 27.9998 28.0003 22.3288 28.0003 15.3332C28.0003 8.33756 22.3293 2.6665 15.3337 2.6665C8.33805 2.6665 2.66699 8.33756 2.66699 15.3332C2.66699 22.3288 8.33805 27.9998 15.3337 27.9998Z"
    fill="#1D44D0"
  />
<path
    d="M28.3994 29.3332C28.1594 29.3332 27.9194 29.2399 27.7461 29.0666L25.2661 26.5866C24.9061 26.2266 24.9061 25.6399 25.2661 25.2666C25.6261 24.9066 26.2128 24.9066 26.5861 25.2666L29.0661 27.7466C29.4261 28.1066 29.4261 28.6932 29.0661 29.0666C28.8794 29.2399 28.6394 29.3332 28.3994 29.3332Z"
    fill="#1D44D0"
  />
</svg>
