<svg width="36" height="36" viewBox="0 0 36 36" fill="none" xmlns="http://www.w3.org/2000/svg">
<path d="M20.8832 3.85015L23.8165 9.71681C24.2165 10.5335 25.2832 11.3168 26.1832 11.4668L31.4999 12.3501C34.8999 12.9168 35.6999 15.3835 33.2499 17.8168L29.1165 21.9501C28.4165 22.6501 28.0332 24.0001 28.2498 24.9668L29.4332 30.0835C30.3665 34.1335 28.2165 35.7001 24.6332 33.5835L19.6499 30.6335C18.7499 30.1001 17.2665 30.1001 16.3499 30.6335L11.3665 33.5835C7.79985 35.7001 5.63318 34.1168 6.56652 30.0835L7.74985 24.9668C7.96652 24.0001 7.58318 22.6501 6.88318 21.9501L2.74985 17.8168C0.316515 15.3835 1.09985 12.9168 4.49985 12.3501L9.81652 11.4668C10.6998 11.3168 11.7665 10.5335 12.1665 9.71681L15.0999 3.85015C16.6999 0.666813 19.2999 0.666813 20.8832 3.85015Z" stroke="#1D44D0" stroke-width="2" stroke-linecap="round" stroke-linejoin="round"/>
</svg>
