<svg width="48" height="48" viewBox="0 0 48 48" fill="none" xmlns="http://www.w3.org/2000/svg">
<path d="M39.1751 10.0156C40.8621 10.0156 41.3061 11.2916 40.8071 14.2876C40.2361 17.7136 38.5911 29.0566 37.2791 36.1176C36.7771 38.8196 35.8721 39.9846 34.5551 39.9846C33.8311 39.9846 32.9831 39.6326 32.0091 38.9896C30.6891 38.1176 24.0251 33.7106 22.5781 32.6756C21.2581 31.7326 19.4371 30.5976 21.7211 28.3636C22.5341 27.5676 27.8611 22.4806 32.0111 18.5216C32.4541 18.0986 32.0831 17.4536 31.5911 17.4536C31.4791 17.4536 31.3601 17.4876 31.2441 17.5646C25.6501 21.2746 17.8931 26.4236 16.9061 27.0946C15.9191 27.7646 14.9571 28.1946 13.6751 28.1946C13.0201 28.1946 12.2811 28.0826 11.4121 27.8326C9.46909 27.2746 7.57209 26.6096 6.83309 26.3556C3.98809 25.3796 4.66309 24.1146 7.42609 22.8986C18.5041 18.0256 32.8391 12.0836 34.8181 11.2616C36.7461 10.4606 38.1781 10.0156 39.1751 10.0156ZM39.1751 7.01562C37.8071 7.01562 36.1601 7.45662 33.6691 8.48962L33.3701 8.61363C22.7351 13.0296 13.0921 17.1276 6.21809 20.1516C5.14409 20.6246 1.87709 22.0616 2.00409 25.0676C2.05809 26.3646 2.77209 28.1326 5.86009 29.1916L6.08809 29.2696C6.95009 29.5666 8.74509 30.1856 10.5851 30.7146C11.7051 31.0366 12.7171 31.1926 13.6761 31.1926C15.3401 31.1926 16.6291 30.7176 17.6371 30.1646C17.6321 30.3326 17.6361 30.5016 17.6491 30.6716C17.8311 32.9836 19.6191 34.2516 20.6871 35.0096L20.8361 35.1156C22.4131 36.2436 29.5501 40.9586 30.3581 41.4916C31.8791 42.4956 33.2521 42.9826 34.5571 42.9826C36.6091 42.9826 39.2601 41.8866 40.2301 36.6646C41.1511 31.7116 42.2151 24.7926 42.9921 19.7406C43.3231 17.5846 43.5951 15.8166 43.7681 14.7796C44.1171 12.6856 44.2771 10.3136 42.8201 8.59463C42.2081 7.87463 41.0801 7.01562 39.1751 7.01562Z" fill="#1D44D0"/>
</svg>
