<svg width="48" height="48" viewBox="0 0 48 48" fill="none" xmlns="http://www.w3.org/2000/svg">
<path d="M5.43545 10.957C3.194 10.957 1.48722 13.1611 2.10537 15.3281C3.71484 20.9769 6.10073 26.5083 9.66201 30.8574C13.2233 35.2065 18.0398 38.359 24.1991 38.9844C26.2493 39.1924 28.0175 37.5211 28.0175 35.4941V31.4473C28.0175 31.1947 28.1899 31.0153 28.3866 31.0098C28.423 31.0089 28.4522 31.0078 28.4706 31.0078C29.1779 31.0078 30.6314 31.894 31.9081 33.2715C33.1848 34.649 34.314 36.3543 34.8573 37.2988V37.3008C35.4721 38.3677 36.6176 39.0117 37.8358 39.0117H42.7089C45.1359 39.0135 46.7599 36.2719 45.5722 34.1484C43.7074 30.8132 39.9873 27.5144 38.1269 25.8691C41.5354 22.126 43.7954 18.0468 44.7968 15.3418C45.5525 13.2981 43.9943 10.998 41.7968 10.998H38.3183C36.8062 10.998 35.3964 11.7348 34.8202 12.9141C32.113 18.4617 29.6999 20.4993 27.9999 21.9668V14.4395C27.9999 12.5615 26.4417 11.0133 24.5702 11.0098L18.4784 11C16.5385 10.9976 15.3357 13.3935 16.4979 14.9473L17.6737 16.5215L17.6757 16.5254C17.8772 16.7919 17.9843 17.1112 17.9843 17.4395V17.4414L18.0077 23.7188C15.5848 21.1634 12.9524 15.7506 12.1581 13.3359V13.334C11.6942 11.9235 10.3597 10.9711 8.88662 10.9668H8.88467L5.4374 10.957H5.43545ZM5.43545 13.957L8.87881 13.9668C9.09046 13.9673 9.24612 14.0815 9.3085 14.2715C10.2948 17.2707 12.8862 22.9852 16.1718 26.1855C17.025 27.0168 18.2773 27.1853 19.2479 26.791C20.2186 26.3968 21.0097 25.375 21.0097 24.1758V24.1738L20.9843 17.4395C20.9843 16.4587 20.6632 15.5048 20.0741 14.7227L20.0722 14.7188L19.5351 14.002L24.5644 14.0098C24.8269 14.0103 24.9999 14.1814 24.9999 14.4395V22.043C24.9999 24.4777 28.0663 25.8766 29.9101 24.2852H29.912C31.6021 22.8253 34.5928 20.2197 37.5155 14.2305C37.5833 14.0917 37.5243 13.998 38.3183 13.998H41.7968C41.9993 13.998 42.0586 14.0945 41.9823 14.3008C41.1315 16.599 38.9607 20.6068 35.7421 24.0742C34.75 25.1431 34.7905 26.9092 35.912 27.9023C37.6702 29.4574 41.5073 33.0255 42.953 35.6113C43.0853 35.8478 42.9859 36.0119 42.7108 36.0117H37.8358C37.6681 36.0117 37.5302 35.9298 37.4569 35.8027C36.8073 34.6733 35.6158 32.8579 34.1093 31.2324C32.6027 29.6069 30.8093 28.0078 28.4706 28.0078C28.4043 28.0078 28.3501 28.0087 28.3085 28.0098H28.3046H28.3026C26.4413 28.0622 25.0175 29.6418 25.0175 31.4473V35.4941C25.0175 35.8051 24.7777 36.028 24.5019 36C19.1782 35.4594 15.1655 32.8444 11.9823 28.957C8.79911 25.0696 6.52567 19.8951 4.99014 14.5059C4.90429 14.2049 5.0889 13.957 5.43545 13.957Z" fill="#1D44D0"/>
</svg>
